<?xml version="1.0" encoding="UTF-8"?>
<svg id="Layer_1" data-name="Layer 1" xmlns="http://www.w3.org/2000/svg" viewBox="0 0 800 230">
  <defs>
    <style>
      .cls-1 {
        fill: #21235f;
      }

      .cls-2 {
        fill: #fff;
      }

      .cls-3 {
        fill: #dc4f26;
      }

      .cls-4 {
        fill: #1b8943;
      }

      .cls-5 {
        fill: #231f20;
      }
    </style>
  </defs>
  <g>
    <path class="cls-1" d="m274.24,131.98l-1.4,6.6c-1.2,5.6-.2,8.2,2.8,8.2,2.4,0,4.4-1.6,5.4-6.4,1.2-5.8,1.4-10.8-8.4-18.8-16-13-19.8-21.6-16.6-37.6,3.2-16.2,12.6-26.8,34.4-26.8,29.8,0,31.8,18.6,29,32l-.8,3.8h-27.4l1.2-5.4c1.4-6.4,1.4-9.6-2.2-9.6-2.6,0-3.8,1.8-4.6,5.2-1.4,6-.4,9,6.4,14.6,18.8,15.4,23.2,23.8,19.8,42-3,15.6-11.2,28.6-37.4,28.6-30.2,0-31.8-18.2-28.8-33.4l.6-3h28Z"/>
    <path class="cls-1" d="m363.64,58.78c-2.6,15.6-8.4,62.8-9.2,67.6h1.4c4-14.6,13.8-50.6,18.2-67.6h29.4c-3,22-5.8,46.4-9,67.8h1.6c3-10.4,13.6-53.4,17.2-67.8h32.8l-40.4,107.8h-34c1.8-17.6,4.2-39.8,5.4-51.8h-1.4c-4,12-12.4,35.8-18,51.8h-33.2l6-107.8h33.2Z"/>
    <path class="cls-1" d="m454.04,58.78h31l-22.8,107.8h-31l22.8-107.8Zm6.6-31.4h31l-5.2,24.8h-31l5.2-24.8Z"/>
    <path class="cls-1" d="m506.44,159.38l-8.8,40.4h-30.8l23.2-110c3-14.4,5.6-27.4,6.2-31h30.4c-.2,2.4-.8,7.4-1.4,10,3.8-5.8,10.6-11.6,21.2-11.6,15,0,19.6,11.2,15.4,31.4l-10.4,50.2c-3.6,16.6-10.4,29.6-29,29.6-4,0-12.6-1.2-16-9Zm14.6-24.8l9.2-44.4c1-4.8.2-7.8-3-7.8-3.8,0-5.4,3.2-6.8,9.6l-8.6,41.2c-1.2,6-.6,9.6,3,9.6,2.6,0,4.8-1.4,6.2-8.2Z"/>
    <path class="cls-1" d="m596.24,119.98l-3.4,17.6c-1.2,5.8.6,7.6,3,7.6,3.6,0,5-2,6.4-8.2l1.6-7.4h30l-.8,5c-4.2,21-13.4,33.8-40,33.8-29,0-34.6-16-29.4-40.8l7.2-34.2c5-23.2,15.2-36.2,40.8-36.2,29,0,34.4,15.2,29.4,39.2l-5,23.6h-39.8Zm13.6-19.8l1.8-8.6c1.8-8.2,2.2-12-2.2-12-4,0-5,2.4-7,12.6l-1.6,8h9Z"/>
    <path class="cls-1" d="m652.24,91.54l.64-3.36c2.24-12,6.56-26.72,28.32-26.72s26.88,12,23.36,29.12c-2.56,12.48-6.88,17.44-15.2,20.16l-.16.32c6.4,4,11.04,10.56,7.36,27.52-4,18.08-9.44,29.12-32.32,29.12-24,0-25.76-14.08-23.04-27.36l.96-4.8h22.72l-1.44,7.52c-.96,4.96-.32,7.2,2.88,7.2s4.16-3.2,5.44-9.12c3.52-16.96,2.08-20.16-7.36-20.16h-5.44l4-19.2h4.48c10.56,0,12.16-2.72,13.92-10.56,2.08-8.96,2.56-11.84-1.44-11.84-2.56,0-3.52,2.72-4.48,6.56l-1.44,5.6h-21.76Z"/>
  </g>
  <g>
    <path class="cls-4" d="m85.13,60.94h91.22c16.56,0,30,13.44,30,30v85.46h-91.22c-16.56,0-30-13.44-30-30V60.94h0Z" transform="translate(-41.22 137.81) rotate(-45)"/>
    <rect class="cls-2" x="80.03" y="73.54" width="95.78" height="90.22" transform="translate(-46.43 125.21) rotate(-45)"/>
    <path class="cls-3" d="m127.5,53.26c-11.55-11.72-30.28-11.72-41.83,0l-41.03,41.62c-11.55,11.72-11.55,30.71,0,42.43l41.78,42.38c11.55,11.72,30.28,11.72,41.83,0l61.94-62.83-62.69-63.59Z"/>
  </g>
  <g>
    <path class="cls-5" d="m721.02,56.21h-7v-4.82h19.74v4.82h-7v20.6h-5.75v-20.6Z"/>
    <path class="cls-5" d="m737.73,51.39h6.27l4.12,11.29c.51,1.5.95,3.13,1.46,4.69h.16c.51-1.56.94-3.19,1.45-4.69l4-11.29h6.27v25.42h-5.23v-9.33c0-2.48.46-6.18.73-8.64h-.16l-2.09,6.02-3.59,9.74h-3.19l-3.6-9.74-2.03-6.02h-.16c.27,2.46.73,6.16.73,8.64v9.33h-5.15v-25.42Z"/>
  </g>
</svg>